<?xml version="1.0" standalone="no"?>
<!DOCTYPE svg PUBLIC "-//W3C//DTD SVG 20010904//EN"
 "http://www.w3.org/TR/2001/REC-SVG-20010904/DTD/svg10.dtd">
<svg version="1.0" xmlns="http://www.w3.org/2000/svg"
 width="600.000000pt" height="600.000000pt" viewBox="0 0 600.000000 600.000000"
 preserveAspectRatio="xMidYMid meet">

<g transform="translate(0.000000,600.000000) scale(0.100000,-0.100000)"
fill="#000000" stroke="none">
<path d="M2802 5979 c-1132 -75 -2128 -796 -2556 -1849 -162 -400 -241 -868
-215 -1272 39 -597 219 -1115 549 -1578 72 -101 220 -283 226 -277 2 1 57 257
123 568 66 310 122 573 124 584 3 11 5 -273 6 -631 l1 -651 -80 18 c-44 9 -80
14 -79 10 1 -8 207 -195 220 -199 5 -2 9 775 9 2092 l0 2096 1645 0 1645 0 -2
-2185 -3 -2185 -1518 0 c-942 0 -1516 -3 -1512 -9 10 -17 226 -138 345 -194
275 -130 578 -220 890 -264 175 -24 595 -24 769 0 210 30 507 102 622 150 33
14 34 15 9 21 -14 3 -221 49 -460 101 -239 52 -462 102 -495 109 -54 13 -3 14
493 15 303 1 552 -2 552 -6 0 -5 -11 -56 -23 -114 l-23 -105 51 18 c93 35 299
139 427 215 370 221 701 537 942 898 242 364 396 759 467 1200 26 164 37 563
20 737 -66 675 -354 1300 -820 1782 -620 640 -1463 965 -2349 905z m-831 -774
l250 -55 1234 0 1235 0 0 -270 0 -269 38 -10 c20 -5 84 -19 142 -32 58 -12
106 -23 108 -24 1 -1 -63 -309 -142 -683 -80 -375 -144 -691 -144 -704 1 -13
1 -569 0 -1236 l-2 -1213 -107 3 -108 3 0 730 c0 402 1 1287 3 1968 1 681 0
1243 -3 1248 -3 5 -5 71 -4 146 l1 138 -23 3 c-13 1 -719 3 -1569 5 l-1545 2
0 95 0 95 177 3 177 2 11 55 c6 30 14 55 16 55 3 0 118 -25 255 -55z"/>
<path d="M1545 4426 c-17 -7 -43 -28 -58 -45 -22 -27 -27 -42 -27 -88 0 -67
20 -104 73 -133 51 -29 126 -24 163 11 23 22 24 24 8 36 -14 10 -21 9 -42 -7
-77 -61 -184 28 -152 125 23 68 100 97 151 56 18 -14 29 -17 42 -9 15 8 16 12
6 24 -35 42 -107 55 -164 30z"/>
<path d="M3257 4422 c-10 -10 -17 -29 -17 -41 0 -14 -7 -25 -20 -28 -11 -3
-20 -12 -20 -19 0 -8 9 -14 20 -14 19 0 20 -7 20 -89 0 -84 1 -89 20 -84 18 5
20 14 20 89 0 77 2 84 20 84 11 0 20 7 20 15 0 8 -9 15 -20 15 -13 0 -20 7
-20 19 0 22 25 45 39 37 10 -7 23 19 14 28 -13 13 -61 5 -76 -12z"/>
<path d="M2980 4380 c0 -20 -5 -30 -15 -30 -8 0 -15 -7 -15 -15 0 -8 7 -15 15
-15 12 0 15 -15 15 -74 0 -84 13 -106 61 -106 23 0 29 4 29 21 0 11 -4 17 -10
14 -24 -15 -40 17 -40 81 0 62 1 64 25 64 32 0 34 27 3 32 -17 2 -24 11 -26
31 -2 19 -9 27 -23 27 -14 0 -19 -7 -19 -30z"/>
<path d="M1803 4341 c-38 -24 -56 -75 -42 -125 13 -45 40 -67 92 -73 39 -5 48
-1 78 25 30 27 34 36 34 81 0 41 -5 55 -26 77 -35 35 -94 42 -136 15z m88 -21
c6 0 17 -16 25 -35 12 -31 12 -39 0 -70 -20 -46 -58 -56 -92 -24 -35 33 -34
90 3 119 15 11 33 18 41 15 7 -3 18 -5 23 -5z"/>
<path d="M2090 4343 c-17 -12 -25 -13 -28 -5 -2 7 -12 12 -23 12 -17 0 -19 -8
-19 -100 0 -93 1 -100 20 -100 17 0 19 8 22 77 3 74 4 79 30 91 21 10 33 10
48 2 17 -9 20 -21 20 -89 0 -69 2 -79 19 -84 28 -7 31 -1 31 74 0 70 -12 118
-33 131 -20 13 -61 9 -87 -9z"/>
<path d="M2290 4348 c-28 -15 -39 -60 -20 -82 6 -8 30 -19 54 -25 55 -14 73
-33 51 -55 -20 -20 -38 -20 -74 -1 -24 12 -31 12 -40 1 -30 -36 96 -63 137
-30 50 42 32 89 -44 114 -53 17 -65 33 -35 50 15 8 29 7 55 -4 29 -12 35 -12
40 -1 12 33 -78 57 -124 33z"/>
<path d="M2518 4344 c-36 -19 -48 -43 -48 -98 0 -59 30 -95 85 -102 48 -7 95
9 95 32 0 12 -5 15 -22 9 -54 -16 -64 -16 -91 5 -49 38 -36 50 53 50 73 0 80
2 80 20 0 76 -83 122 -152 84z m100 -36 c6 -6 12 -17 12 -24 0 -10 -16 -14
-60 -14 -62 0 -69 5 -47 32 22 28 63 31 95 6z"/>
<path d="M2793 4345 c-14 -10 -24 -12 -28 -5 -3 5 -15 10 -26 10 -18 0 -19 -8
-19 -100 0 -82 3 -100 15 -100 8 0 18 -1 22 -2 3 -2 6 29 4 67 -1 39 2 75 6
81 16 23 52 35 72 25 26 -14 31 -32 31 -107 0 -57 2 -64 20 -64 18 0 20 7 20
85 0 72 -3 88 -20 105 -24 24 -67 26 -97 5z"/>
<path d="M3384 4326 c-92 -92 11 -231 126 -171 36 19 50 43 50 89 0 72 -42
116 -111 116 -22 0 -41 -10 -65 -34z m111 -21 c33 -32 33 -78 0 -110 -13 -14
-31 -25 -40 -25 -25 0 -65 46 -65 75 0 35 17 64 43 75 32 13 36 12 62 -15z"/>
<path d="M3685 4345 c-23 -17 -39 -20 -30 -5 4 6 -5 10 -19 10 l-26 0 0 -100
c0 -97 1 -100 23 -100 21 0 22 3 19 60 -4 69 13 106 50 112 13 2 23 9 23 17 0
21 -18 23 -40 6z"/>
<path d="M3832 4344 c-12 -8 -22 -10 -22 -5 0 6 -9 11 -20 11 -19 0 -20 -7
-20 -100 0 -93 1 -100 20 -100 18 0 20 7 20 74 0 66 3 77 22 90 28 20 33 20
52 0 12 -11 16 -36 16 -94 0 -73 1 -78 20 -73 18 5 20 14 20 79 0 64 3 75 22
88 28 20 33 20 52 0 12 -11 16 -36 16 -93 0 -70 2 -77 20 -77 19 0 20 7 20 92
0 75 -3 94 -18 107 -23 21 -48 21 -86 2 -26 -14 -31 -14 -46 0 -21 19 -60 19
-88 -1z"/>
<path d="M1799 1566 c-208 -58 -359 -256 -359 -471 0 -278 215 -495 489 -495
197 0 362 106 449 287 36 77 37 80 37 198 0 101 -4 130 -23 180 -55 146 -196
271 -344 305 -59 13 -193 11 -249 -4z m461 -321 c14 -17 14 -18 -238 -279
l-143 -149 -27 24 c-15 13 -75 71 -134 128 -59 58 -113 108 -120 112 -8 5 4
25 42 66 30 32 55 60 56 61 2 2 39 -31 84 -75 45 -43 85 -79 90 -81 4 -2 70
62 146 142 l138 145 46 -39 c26 -22 53 -46 60 -55z"/>
</g>
</svg>
